<svg width="68" height="64" viewBox="0 0 68 64" fill="none" xmlns="http://www.w3.org/2000/svg">
<path d="M12.544 64C10.7246 64 9.77904 63.3137 8.87138 61.7194L0.580453 46.3503C0.00910461 45.2489 0 44.882 0 44.0884L13.0303 44.6629L16.0126 47.6452H42.1497L20.4478 61.089C19.39 61.7146 15.3669 64 12.544 64V64Z" fill="url(#paint0_linear_614_49739)"/>
<path d="M16.0246 47.6453H4.75353C1.3493 47.6453 0 45.8647 0 44.0886C0 42.9646 0.361656 42.3517 0.861693 41.1026L17.2871 1.89102L17.4637 1.54693L17.691 1.19389L18.1638 0.73314L18.8579 0.362146L19.8631 0.140747L21.5924 0.185626L33.0065 4.42812L29.147 16.5991L16.0246 47.6453Z" fill="url(#paint1_linear_614_49739)"/>
<path fill-rule="evenodd" clip-rule="evenodd" d="M49.1197 63.9977L23.1932 2.62098C22.7466 1.57589 22.0307 0.227469 20.1774 0.227469C18.5215 0.227469 17.7327 1.02925 17.2872 1.89097C17.5176 1.26954 18.2146 0.0623169 20.2348 0.0623169H38.1287C39.7777 0.0623169 40.5688 1.03327 40.9293 1.92225L67.1476 63.9977H49.1197Z" fill="url(#paint2_linear_614_49739)"/>
<defs>
<linearGradient id="paint0_linear_614_49739" x1="5.44455" y1="55.3932" x2="42.0165" y2="48.1063" gradientUnits="userSpaceOnUse">
<stop stop-color="#2B7A77"/>
<stop offset="0.510487" stop-color="#4EBAA9"/>
<stop offset="1" stop-color="#5CC2B1"/>
</linearGradient>
<linearGradient id="paint1_linear_614_49739" x1="24.2805" y1="5.07249" x2="6.13199" y2="47.694" gradientUnits="userSpaceOnUse">
<stop stop-color="#236736"/>
<stop offset="0.4928" stop-color="#6BA443"/>
<stop offset="1" stop-color="#86C146"/>
</linearGradient>
<linearGradient id="paint2_linear_614_49739" x1="31.2925" y1="0.260345" x2="57.9653" y2="63.7801" gradientUnits="userSpaceOnUse">
<stop stop-color="#29A5E3"/>
<stop offset="0.515493" stop-color="#356EB9"/>
<stop offset="1" stop-color="#394DA5"/>
</linearGradient>
</defs>
</svg>
