<svg width="78" height="64" viewBox="0 0 78 64" fill="none" xmlns="http://www.w3.org/2000/svg">
<g clip-path="url(#clip0_614_49687)">
<path d="M48.9254 18.1748H51.2732L57.9645 11.4836L58.2931 8.64272C54.46 5.25943 49.8276 2.90918 44.8336 1.81398C39.8395 0.718775 34.6487 0.914779 29.7515 2.38347C24.8543 3.85217 20.4123 6.54507 16.8452 10.2078C13.2781 13.8705 10.7036 18.3821 9.36496 23.3165C10.1104 23.0109 10.9361 22.9614 11.7128 23.1756L25.0952 20.9687C25.0952 20.9687 25.7761 19.8417 26.1283 19.9122C28.9957 16.763 32.9584 14.8289 37.2052 14.506C41.452 14.183 45.6617 15.4955 48.9724 18.1748H48.9254Z" fill="#EA4335"/>
<path d="M67.4967 23.3167C65.9587 17.6529 62.8009 12.5613 58.4108 8.66638L49.0196 18.0576C50.9768 19.6568 52.5453 21.6796 53.6068 23.9734C54.6683 26.2672 55.195 28.7721 55.1473 31.2992V32.9661C56.2449 32.9661 57.3318 33.1823 58.3458 33.6024C59.3599 34.0224 60.2813 34.6381 61.0574 35.4142C61.8336 36.1903 62.4492 37.1117 62.8692 38.1258C63.2893 39.1398 63.5055 40.2267 63.5055 41.3243C63.5055 42.4219 63.2893 43.5088 62.8692 44.5228C62.4492 45.5369 61.8336 46.4583 61.0574 47.2344C60.2813 48.0106 59.3599 48.6262 58.3458 49.0463C57.3318 49.4663 56.2449 49.6825 55.1473 49.6825H38.431L36.764 51.3729V61.398L38.431 63.065H55.1473C59.8153 63.1013 64.371 61.6342 68.1405 58.8806C71.9101 56.1271 74.6932 52.2334 76.0782 47.7754C77.4633 43.3175 77.3766 38.5322 75.8312 34.1273C74.2857 29.7224 71.3635 25.932 67.4967 23.3167Z" fill="#4285F4"/>
<path d="M21.6912 62.971H38.4075V49.5886H21.6912C20.5002 49.5883 19.3232 49.3321 18.2399 48.8373L15.8921 49.5651L9.15391 56.2563L8.56696 58.6041C12.3456 61.4574 16.9563 62.9916 21.6912 62.971Z" fill="#34A853"/>
<path d="M21.6909 19.5601C17.1616 19.5872 12.7538 21.0282 9.08321 23.6819C5.41261 26.3357 2.6625 30.0696 1.217 34.3621C-0.228511 38.6547 -0.297229 43.2915 1.02044 47.625C2.33811 51.9585 4.97636 55.7723 8.5667 58.5336L18.2631 48.8372C17.0309 48.2805 15.9522 47.4332 15.1194 46.3679C14.2867 45.3026 13.7248 44.0512 13.4821 42.721C13.2393 41.3909 13.3228 40.0217 13.7256 38.7309C14.1283 37.4401 14.8382 36.2663 15.7943 35.3102C16.7504 34.3541 17.9242 33.6442 19.2149 33.2415C20.5057 32.8388 21.8749 32.7552 23.2051 32.998C24.5352 33.2408 25.7867 33.8026 26.8519 34.6354C27.9172 35.4681 28.7646 36.5469 29.3213 37.7791L39.0177 28.0827C36.9825 25.422 34.3594 23.2683 31.3536 21.7898C28.3478 20.3113 25.0407 19.5482 21.6909 19.5601Z" fill="#FBBC05"/>
</g>
<defs>
<clipPath id="clip0_614_49687">
<rect width="77.0612" height="64" fill="white"/>
</clipPath>
</defs>
</svg>
