<svg width="54" height="64" viewBox="0 0 54 64" fill="none" xmlns="http://www.w3.org/2000/svg">
<path d="M34.1986 0C34.119 0 0.0641252 12.7764 0.0176897 12.825C0 12.8405 -0.00442242 21.4554 0.00442242 31.9675L0.0221121 51.079L4.26764 49.4184C6.60268 48.5052 9.20749 47.4858 10.0522 47.1519L11.5912 46.5482V30.9901C11.5912 20.2591 11.6133 15.4188 11.6664 15.3878C11.7946 15.3082 34.1234 9.98805 34.1809 10.0212C34.2517 10.0654 34.2517 55.738 34.1809 55.78C34.1522 55.7977 26.5345 54.7651 17.2519 53.487C7.97142 52.2067 0.353794 51.1675 0.327259 51.1763C0.298514 51.1874 7.86086 54 17.1325 57.4318C26.4019 60.8614 34.0659 63.6719 34.1632 63.6763C34.2605 63.6785 38.568 62.5132 43.7334 61.0847L53.1266 58.4866L53.1089 31.9587L53.0912 5.43074L43.6803 2.71537C38.5061 1.2228 34.2384 0 34.1986 0Z" fill="#EB3C00"/>
</svg>
