<svg width="65" height="64" viewBox="0 0 65 64" fill="none" xmlns="http://www.w3.org/2000/svg">
<path d="M13.4978 40.4421C13.4978 44.1603 10.4926 47.1654 6.77439 47.1654C3.05617 47.1654 0.0510254 44.1603 0.0510254 40.4421C0.0510254 36.7238 3.05617 33.7187 6.77439 33.7187H13.4978V40.4421ZM16.8594 40.4421C16.8594 36.7238 19.8646 33.7187 23.5828 33.7187C27.301 33.7187 30.3062 36.7238 30.3062 40.4421V57.2505C30.3062 60.9687 27.301 63.9739 23.5828 63.9739C19.8646 63.9739 16.8594 60.9687 16.8594 57.2505V40.4421Z" fill="#E01E5A"/>
<path d="M23.5827 13.4467C19.8645 13.4467 16.8594 10.4416 16.8594 6.72337C16.8594 3.00514 19.8645 0 23.5827 0C27.301 0 30.3061 3.00514 30.3061 6.72337V13.4467H23.5827ZM23.5827 16.8594C27.301 16.8594 30.3061 19.8645 30.3061 23.5827C30.3061 27.301 27.301 30.3061 23.5827 30.3061H6.72337C3.00514 30.3061 0 27.301 0 23.5827C0 19.8645 3.00514 16.8594 6.72337 16.8594H23.5827Z" fill="#36C5F0"/>
<path d="M50.5272 23.5827C50.5272 19.8645 53.5323 16.8594 57.2505 16.8594C60.9688 16.8594 63.9739 19.8645 63.9739 23.5827C63.9739 27.301 60.9688 30.3061 57.2505 30.3061H50.5272V23.5827ZM47.1655 23.5827C47.1655 27.301 44.1603 30.3061 40.4421 30.3061C36.7239 30.3061 33.7188 27.301 33.7188 23.5827V6.72337C33.7188 3.00514 36.7239 0 40.4421 0C44.1603 0 47.1655 3.00514 47.1655 6.72337V23.5827Z" fill="#2EB67D"/>
<path d="M40.4421 50.5271C44.1603 50.5271 47.1655 53.5323 47.1655 57.2505C47.1655 60.9687 44.1603 63.9739 40.4421 63.9739C36.7239 63.9739 33.7188 60.9687 33.7188 57.2505V50.5271H40.4421ZM40.4421 47.1654C36.7239 47.1654 33.7188 44.1603 33.7188 40.4421C33.7188 36.7238 36.7239 33.7187 40.4421 33.7187H57.3015C61.0197 33.7187 64.0249 36.7238 64.0249 40.4421C64.0249 44.1603 61.0197 47.1654 57.3015 47.1654H40.4421Z" fill="#ECB22E"/>
</svg>
