<svg width="64" height="64" viewBox="0 0 64 64" fill="none" xmlns="http://www.w3.org/2000/svg">
<path d="M64 32C64 14.3269 49.6731 0 32 0C14.3269 0 0 14.3269 0 32C0 49.6731 14.3269 64 32 64C49.6731 64 64 49.6731 64 32Z" fill="#2D8CFF"/>
<path d="M44.2512 38.4133L47.8594 41.4203C48.7438 42.1573 49.186 42.5259 49.5424 42.6135C50.271 42.7931 51.0262 42.4395 51.3548 41.7647C51.5156 41.4347 51.5156 40.8591 51.5156 39.7079V24.2507C51.5156 23.0995 51.5156 22.5239 51.3548 22.1939C51.0262 21.5191 50.271 21.1653 49.5424 21.3449C49.186 21.4327 48.7438 21.8013 47.8594 22.5381L44.2512 25.5451C43.6632 26.0351 43.3694 26.2801 43.133 26.5601C42.6588 27.1219 42.3416 27.7991 42.2136 28.5231C42.1496 28.8839 42.1496 29.2665 42.1496 30.0317V33.9267C42.1496 34.6919 42.1496 35.0745 42.2136 35.4355C42.3416 36.1593 42.6588 36.8365 43.133 37.3983C43.3692 37.6785 43.6632 37.9235 44.2512 38.4133Z" fill="white"/>
<path d="M12.4912 25.1798C12.4912 23.7352 12.4912 23.013 12.7724 22.4612C13.0197 21.9758 13.4143 21.5812 13.8996 21.3338C14.4515 21.0528 15.1737 21.0528 16.6184 21.0528H29.7806C33.5638 21.0528 35.4554 21.0528 36.9004 21.789C38.1714 22.4366 39.2048 23.47 39.8524 24.7412C40.5888 26.186 40.5888 28.0778 40.5888 31.8608V38.7792C40.5888 40.2238 40.5888 40.9462 40.3076 41.498C40.0604 41.9832 39.6656 42.378 39.1804 42.6252C38.6286 42.9064 37.9062 42.9064 36.4616 42.9064H23.2994C19.5162 42.9064 17.6245 42.9064 16.1796 42.17C14.9085 41.5224 13.8751 40.489 13.2275 39.218C12.4912 37.773 12.4912 35.8814 12.4912 32.0982V25.1798Z" fill="white"/>
</svg>
